name ./resultDataOpenSim/trcMotMarkerGrf/sub06/grf-04-01.mot
datacolumns 19
datarows 25
range 0.00000000 0.09600000
endheader

                time	     ground_force_vx	     ground_force_vy	     ground_force_vz	     ground_force_px	     ground_force_py	     ground_force_pz	   l_ground_force_vx	   l_ground_force_vy	   l_ground_force_vz	   l_ground_force_px	   l_ground_force_py	   l_ground_force_pz	     ground_torque_x	     ground_torque_y	     ground_torque_z	   l_ground_torque_x	   l_ground_torque_y	   l_ground_torque_z	
          0.00000000	          0.00000000	          0.00000000	          0.00000000	          0.00000000	          0.00000000	          0.00000000	          0.00000000	          0.00000000	          0.00000000	          0.00000000	          0.00000000	          0.00000000	          0.00000000	          0.00000000	          0.00000000	          0.00000000	          0.00000000	          0.00000000	
          0.00400000	          0.00000000	          0.00000000	          0.00000000	          0.00000000	          0.00000000	          0.00000000	          0.00000000	          0.00000000	          0.00000000	          0.00000000	          0.00000000	          0.00000000	          0.00000000	          0.00000000	          0.00000000	          0.00000000	          0.00000000	          0.00000000	
          0.00800000	          0.00000000	          0.00000000	          0.00000000	          0.00000000	          0.00000000	          0.00000000	          0.00000000	          0.00000000	          0.00000000	          0.00000000	          0.00000000	          0.00000000	          0.00000000	          0.00000000	          0.00000000	          0.00000000	          0.00000000	          0.00000000	
          0.01200000	          0.00000000	          0.00000000	          0.00000000	          0.00000000	          0.00000000	          0.00000000	          0.00000000	          0.00000000	          0.00000000	          0.00000000	          0.00000000	          0.00000000	          0.00000000	          0.00000000	          0.00000000	          0.00000000	          0.00000000	          0.00000000	
          0.01600000	          0.00000000	          0.00000000	          0.00000000	          0.00000000	          0.00000000	          0.00000000	          0.00000000	          0.00000000	          0.00000000	          0.00000000	          0.00000000	          0.00000000	          0.00000000	          0.00000000	          0.00000000	          0.00000000	          0.00000000	          0.00000000	
          0.02000000	          0.00000000	          0.00000000	          0.00000000	          0.00000000	          0.00000000	          0.00000000	          0.00000000	          0.00000000	          0.00000000	          0.00000000	          0.00000000	          0.00000000	          0.00000000	          0.00000000	          0.00000000	          0.00000000	          0.00000000	          0.00000000	
          0.02400000	          0.00000000	          0.00000000	          0.00000000	          0.00000000	          0.00000000	          0.00000000	          0.00000000	          0.00000000	          0.00000000	          0.00000000	          0.00000000	          0.00000000	          0.00000000	          0.00000000	          0.00000000	          0.00000000	          0.00000000	          0.00000000	
          0.02800000	          0.00000000	          0.00000000	          0.00000000	          0.00000000	          0.00000000	          0.00000000	          0.00000000	          0.00000000	          0.00000000	          0.00000000	          0.00000000	          0.00000000	          0.00000000	          0.00000000	          0.00000000	          0.00000000	          0.00000000	          0.00000000	
          0.03200000	          0.00000000	          0.00000000	          0.00000000	          0.00000000	          0.00000000	          0.00000000	          0.00000000	          0.00000000	          0.00000000	          0.00000000	          0.00000000	          0.00000000	          0.00000000	          0.00000000	          0.00000000	          0.00000000	          0.00000000	          0.00000000	
          0.03600000	          0.00000000	          0.00000000	          0.00000000	          0.00000000	          0.00000000	          0.00000000	          0.00000000	          0.00000000	          0.00000000	          0.00000000	          0.00000000	          0.00000000	          0.00000000	          0.00000000	          0.00000000	          0.00000000	          0.00000000	          0.00000000	
          0.04000000	          0.00000000	          0.00000000	          0.00000000	          0.00000000	          0.00000000	          0.00000000	          0.00000000	          0.00000000	          0.00000000	          0.00000000	          0.00000000	          0.00000000	          0.00000000	          0.00000000	          0.00000000	          0.00000000	          0.00000000	          0.00000000	
          0.04400000	          0.00000000	          0.00000000	          0.00000000	          0.00000000	          0.00000000	          0.00000000	          0.00000000	          0.00000000	          0.00000000	          0.00000000	          0.00000000	          0.00000000	          0.00000000	          0.00000000	          0.00000000	          0.00000000	          0.00000000	          0.00000000	
          0.04800000	          0.00000000	          0.00000000	          0.00000000	          0.00000000	          0.00000000	          0.00000000	          0.00000000	          0.00000000	          0.00000000	          0.00000000	          0.00000000	          0.00000000	          0.00000000	          0.00000000	          0.00000000	          0.00000000	          0.00000000	          0.00000000	
          0.05200000	          0.00000000	          0.00000000	          0.00000000	          0.00000000	          0.00000000	          0.00000000	          0.00000000	          0.00000000	          0.00000000	          0.00000000	          0.00000000	          0.00000000	          0.00000000	          0.00000000	          0.00000000	          0.00000000	          0.00000000	          0.00000000	
          0.05600000	          0.00000000	          0.00000000	          0.00000000	          0.00000000	          0.00000000	          0.00000000	          0.00000000	          0.00000000	          0.00000000	          0.00000000	          0.00000000	          0.00000000	          0.00000000	          0.00000000	          0.00000000	          0.00000000	          0.00000000	          0.00000000	
          0.06000000	          0.00000000	          0.00000000	          0.00000000	          0.00000000	          0.00000000	          0.00000000	          0.00000000	          0.00000000	          0.00000000	          0.00000000	          0.00000000	          0.00000000	          0.00000000	          0.00000000	          0.00000000	          0.00000000	          0.00000000	          0.00000000	
          0.06400000	          1.76276014	         29.70056100	          3.04511783	         -1.04080793	          0.00000000	          0.06191189	          0.00000000	          0.00000000	          0.00000000	          0.00000000	          0.00000000	          0.00000000	          0.00000000	         -0.55380122	          0.00000000	          0.00000000	          0.00000000	          0.00000000	
          0.06800000	         -2.90819241	        153.84610947	          9.16607453	         -1.03719650	          0.00000000	          0.06049229	          0.00000000	          0.00000000	          0.00000000	          0.00000000	          0.00000000	          0.00000000	          0.00000000	         -0.66624024	          0.00000000	          0.00000000	          0.00000000	          0.00000000	
          0.07200000	         -9.14034555	        266.20597681	         15.41272144	         -1.03405988	          0.00000000	          0.05911177	          0.00000000	          0.00000000	          0.00000000	          0.00000000	          0.00000000	          0.00000000	          0.00000000	         -0.77802323	          0.00000000	          0.00000000	          0.00000000	          0.00000000	
          0.07600000	        -18.42875035	        357.16657443	         21.37707237	         -1.03099353	          0.00000000	          0.05805822	          0.00000000	          0.00000000	          0.00000000	          0.00000000	          0.00000000	          0.00000000	          0.00000000	         -0.88722444	          0.00000000	          0.00000000	          0.00000000	          0.00000000	
          0.08000000	        -31.77147563	        423.39343235	         26.17415871	         -1.02783413	          0.00000000	          0.05772517	          0.00000000	          0.00000000	          0.00000000	          0.00000000	          0.00000000	          0.00000000	          0.00000000	         -0.98956256	          0.00000000	          0.00000000	          0.00000000	          0.00000000	
          0.08400000	        -48.91475413	        468.60748603	         28.89937478	         -1.02431620	          0.00000000	          0.05812665	          0.00000000	          0.00000000	          0.00000000	          0.00000000	          0.00000000	          0.00000000	          0.00000000	         -1.07925856	          0.00000000	          0.00000000	          0.00000000	          0.00000000	
          0.08800000	        -68.24279063	        500.30786485	         29.10916597	         -1.02033151	          0.00000000	          0.05886966	          0.00000000	          0.00000000	          0.00000000	          0.00000000	          0.00000000	          0.00000000	          0.00000000	         -1.15125266	          0.00000000	          0.00000000	          0.00000000	          0.00000000	
          0.09200000	        -87.66751607	        525.01275216	         26.83077793	         -1.01612628	          0.00000000	          0.05964604	          0.00000000	          0.00000000	          0.00000000	          0.00000000	          0.00000000	          0.00000000	          0.00000000	         -1.20446954	          0.00000000	          0.00000000	          0.00000000	          0.00000000	
          0.09600000	       -105.61212208	        546.12834365	         22.29987461	         -1.01195234	          0.00000000	          0.06057761	          0.00000000	          0.00000000	          0.00000000	          0.00000000	          0.00000000	          0.00000000	          0.00000000	         -1.24567978	          0.00000000	          0.00000000	          0.00000000	          0.00000000	
